<svg id="Layer_1" data-name="Layer 1" xmlns="http://www.w3.org/2000/svg" viewBox="0 0 219.98 49.03"><defs><style>.cls-1{fill:#5d9f50;}.cls-2{fill:#262424;}</style></defs><title>grain_logo</title><path class="cls-1" d="M56.62,38.75A5.51,5.51,0,0,1,55,39a5.85,5.85,0,0,1-2.48-.72,13.28,13.28,0,0,0-3.43-1.15A8,8,0,0,0,47.76,37c-2.61,0-3.51,1.72-3.61,2.63a3.75,3.75,0,0,0,3.05,4.2,4.58,4.58,0,0,0,1.69.31c3.7,0,8.32-3.79,8.52-4a.87.87,0,0,0,.21-1.07A.83.83,0,0,0,56.62,38.75Zm-7.73,3.71h0a2.89,2.89,0,0,1-1.11-.2h0l-.17-.06a2.07,2.07,0,0,1-1.78-2.33c0-.17.26-1.11,1.93-1.11a5.59,5.59,0,0,1,1,.1,11.9,11.9,0,0,1,3,1,9.25,9.25,0,0,0,2,.75A10.64,10.64,0,0,1,48.89,42.46Zm15-12.25a4.89,4.89,0,0,1-4.12-.08,13.2,13.2,0,0,0-3.52-.86l-.76,0c-3,0-3.91,1.92-4,2.94A3.75,3.75,0,0,0,55,36.11a4.31,4.31,0,0,0,1.26.18c3.79,0,8.43-4.48,8.62-4.67A.88.88,0,0,0,65,30.53.84.84,0,0,0,63.93,30.21Zm-7.71,4.37a2.61,2.61,0,0,1-.82-.13l-.19,0a2.06,2.06,0,0,1-2-2.17c0-.2.22-1.29,2.27-1.29l.61,0a11.67,11.67,0,0,1,3.11.77,9.85,9.85,0,0,0,2.08.57C59.76,33.46,57.79,34.58,56.22,34.58ZM72.29,22.69a.83.83,0,0,0-1-.3,4.8,4.8,0,0,1-2,.48,6.66,6.66,0,0,1-2.15-.48,13.29,13.29,0,0,0-3.53-.78l-.62,0c-3.14,0-4,2-4,3a3.73,3.73,0,0,0,3.46,3.87,4.34,4.34,0,0,0,1.16.15c3.81,0,8.44-4.64,8.63-4.84A.86.86,0,0,0,72.29,22.69Zm-8.73,4.22a2.63,2.63,0,0,1-.76-.11l-.18,0a2,2,0,0,1-2-2.13c0-.2.2-1.33,2.35-1.33a4.26,4.26,0,0,1,.5,0,11.54,11.54,0,0,1,3.12.7,10.1,10.1,0,0,0,2.1.53C67.12,25.74,65.14,26.91,63.56,26.91ZM44.9,32.83a14.64,14.64,0,0,0-1.11-3.55A5.27,5.27,0,0,1,43.38,25,.86.86,0,0,0,43,24a.84.84,0,0,0-1.06.24c-.51.67-5,6.62-3.51,10.53A3.76,3.76,0,0,0,42,37.94l.5,0a2.77,2.77,0,0,0,1.82-1.15A5.11,5.11,0,0,0,44.9,32.83Zm-2.65,3.38-.28,0c-1.59,0-1.91-1.79-1.93-1.86a.61.61,0,0,0,0-.18c-.65-1.65.39-4.24,1.54-6.29A10.89,10.89,0,0,0,42.24,30a12.69,12.69,0,0,1,1,3.16C43.69,35.87,42.4,36.19,42.25,36.21Zm4.18-7.83a3.43,3.43,0,0,0,3.11,1.84h.16a2.88,2.88,0,0,0,1.9-1,5.05,5.05,0,0,0,.92-3.87,15.1,15.1,0,0,0-.82-3.63,5.25,5.25,0,0,1-.08-4.31.86.86,0,0,0-.34-1,.84.84,0,0,0-1.07.15c-.57.62-5.48,6.19-4.32,10.21A4.94,4.94,0,0,0,46.43,28.38Zm3.12-8.23a11.36,11.36,0,0,0,.54,2.12,12.54,12.54,0,0,1,.74,3.23c.25,2.78-1.07,3-1.22,3h-.07c-1.71,0-1.95-1.8-2-2a1.08,1.08,0,0,0,0-.19C47,24.59,48.24,22.1,49.55,20.15Zm7.39,2.44H57a2.77,2.77,0,0,0,1.92-1,5,5,0,0,0,1-3.85,14.7,14.7,0,0,0-.75-3.65,5.26,5.26,0,0,1,0-4.3.87.87,0,0,0-.32-1.05.84.84,0,0,0-1.07.12C57.2,9.52,52.19,15,53.26,19A3.74,3.74,0,0,0,56.94,22.59Zm.11-10.07a10.85,10.85,0,0,0,.51,2.13,13.85,13.85,0,0,1,.68,3.25,3.55,3.55,0,0,1-.55,2.57,1.17,1.17,0,0,1-.71.4l0,.86v-.86c-1.77,0-2-1.86-2-2.08a.55.55,0,0,0,0-.17C54.42,16.91,55.7,14.44,57.05,12.52ZM38.55,37.71a.84.84,0,0,0-1.09.5.85.85,0,0,0,.49,1.1,6.22,6.22,0,0,1,4,4.06.84.84,0,0,0,.83.69L43,44a.85.85,0,0,0,.65-1A7.8,7.8,0,0,0,38.55,37.71Zm-.22,4.19-5.61,5.8-1.55-1.6a.83.83,0,0,0-1.19,0,.86.86,0,0,0,0,1.21l2.09,2.17a.61.61,0,0,0,.07.1l.08,0,4,4.13a.83.83,0,0,0,.6.26.84.84,0,0,0,.59-.24.88.88,0,0,0,0-1.22l-3.5-3.61,5.64-5.84a.86.86,0,0,0,0-1.21A.83.83,0,0,0,38.33,41.9ZM61.66,15.59a.89.89,0,0,0,.55-.2c1.17-1,4.34-3.42,6.55-3.81-.37,2.3-2.7,5.61-3.68,6.83a.85.85,0,1,0,1.3,1.09c.44-.55,4.14-5.21,4.11-8.56a.43.43,0,0,0,.05-.16.81.81,0,0,0-.28-.72.83.83,0,0,0-.71-.3,1.15,1.15,0,0,0-.17.06c-3.24,0-7.75,3.81-8.27,4.27A.86.86,0,0,0,61,15.3.84.84,0,0,0,61.66,15.59ZM21.43,40.16l-.77,0a13.11,13.11,0,0,0-3.51.86,4.91,4.91,0,0,1-4.13.08.84.84,0,0,0-1,.32.86.86,0,0,0,.13,1.09c.19.19,4.83,4.67,8.62,4.67A4.36,4.36,0,0,0,22,47a3.74,3.74,0,0,0,3.38-3.93C25.34,42.08,24.46,40.16,21.43,40.16Zm.31,5.17-.18,0a2.71,2.71,0,0,1-.82.13c-1.57,0-3.54-1.12-5.11-2.26a10,10,0,0,0,2.08-.57,11.67,11.67,0,0,1,3.11-.77l.61,0c2.05,0,2.24,1.09,2.26,1.29A2,2,0,0,1,21.74,45.33Zm-7.18-5.94A3.74,3.74,0,0,0,18,35.52c0-1-.9-3-4-3l-.62,0a13.69,13.69,0,0,0-3.53.78,6.61,6.61,0,0,1-2.15.48,4.79,4.79,0,0,1-2-.48.85.85,0,0,0-1,.3.88.88,0,0,0,.1,1.09c.2.2,4.82,4.84,8.63,4.84A4.47,4.47,0,0,0,14.56,39.39Zm-4.21-4.45a11.63,11.63,0,0,1,3.12-.7,4.35,4.35,0,0,1,.5,0c2.16,0,2.34,1.13,2.36,1.33a2.07,2.07,0,0,1-2,2.14.63.63,0,0,0-.19,0,2.58,2.58,0,0,1-.76.11c-1.57,0-3.56-1.17-5.13-2.36A9.86,9.86,0,0,0,10.35,34.94Zm17.06,6.2a3.44,3.44,0,0,0,3.12-1.84,5.11,5.11,0,0,0,.54-1.65c1.16-4-3.76-9.59-4.33-10.21a.85.85,0,0,0-1.07-.15.89.89,0,0,0-.34,1.05,5.27,5.27,0,0,1-.07,4.3,14.64,14.64,0,0,0-.82,3.63,5.08,5.08,0,0,0,.91,3.87,2.87,2.87,0,0,0,1.91,1Zm-1.29-4.72a13,13,0,0,1,.74-3.23,11.37,11.37,0,0,0,.55-2.12c1.31,2,2.55,4.44,2,6.14a1.06,1.06,0,0,0,0,.19c0,.22-.26,2-2,2h-.07C27.19,39.41,25.88,39.21,26.12,36.42ZM20,33.51H20a3.73,3.73,0,0,0,3.68-3.57c1.08-4.05-3.93-9.5-4.51-10.11a.84.84,0,0,0-1.08-.13.86.86,0,0,0-.31,1.05,5.26,5.26,0,0,1,0,4.3A14.65,14.65,0,0,0,17,28.7a5.1,5.1,0,0,0,1,3.85A2.8,2.8,0,0,0,20,33.51Zm-1.23-4.69a12.91,12.91,0,0,1,.68-3.25,10.85,10.85,0,0,0,.51-2.13c1.34,1.92,2.63,4.39,2.13,6.1l0,.18c0,.21-.22,2.07-2,2.07v.86l0-.86a1.17,1.17,0,0,1-.71-.4A3.55,3.55,0,0,1,18.72,28.82ZM32,42.41a.84.84,0,0,0-1.09-.5,7.85,7.85,0,0,0-5.06,5.32.86.86,0,0,0,.66,1l.17,0a.85.85,0,0,0,.83-.69,6.16,6.16,0,0,1,4-4.06A.86.86,0,0,0,32,42.41Zm-21.47-12a.86.86,0,0,0,.66.31.81.81,0,0,0,.54-.2.85.85,0,0,0,.11-1.2c-1-1.22-3.32-4.52-3.69-6.83,2.21.39,5.39,2.79,6.56,3.81a.81.81,0,0,0,.55.2.85.85,0,0,0,.64-.29A.87.87,0,0,0,15.85,25c-.52-.46-5-4.3-8.28-4.27a.43.43,0,0,0-.16,0,.81.81,0,0,0-.72.29.87.87,0,0,0-.28.72c0,.06,0,.11,0,.16C6.43,25.21,10.14,29.88,10.57,30.42Z" transform="translate(-4.51 -4.97)"/><path class="cls-2" d="M137.35,33.36a18,18,0,0,1,2.54-.22c2.76,0,4.14-.07,4.21-1s-2.18-.88-2.18-.88a75,75,0,0,0-11.19.36c-7,.66-16.86,2.27-22.46,2.64-2.69.22-6.61.15-6.61.15-1.75-.15-2.26,1-.37,1.68,3.2,1.18,13.67.08,21.08-.58,2.84-.3,7.85-1.1,11.92-1.69-.07,4.25-6,16.94-26.16,17.3-13.3.3-17.16-5.42-16.79-14.51.65-17.75,28-29.33,39.39-29,1.53.07,6,.51,5.89,4.18-.22,5.13-10.54,8.43-10.54,8.43s-1.82.22-1.82,1.24c-.07,1.18,1.89.66,1.89.66s12.43-2.34,12.79-11.21c.08-1.76-1.23-5.72-8.5-5.94C114,4.4,88.94,19.87,88.36,36.44,87.92,47.73,97.88,53.52,109.07,54,123.68,54.48,136.69,41.57,137.35,33.36Z" transform="translate(-4.51 -4.97)"/><path class="cls-2" d="M147,40.18c.94,0,.94-1.17,1.74-.51.44.44-.8,1.68-.58,5.06,0,1.39.29,7,5.74,7.33,5,.29,8.58-7,9.16-8.07,1.45-2.93.36-4.54-.22-3.37-1.74,3.08-5,9-8.5,9-2.91,0-3.27-2.57-3.2-5.72s.94-3.08,1.09-4.77c0-.22.36-2-.66-2.64-1.67-.95-3.19.22-3.63.44-.22.08-.73.3-1-.07s.37-1.1.37-1.76c.07-.51-.51-2.27-1.6-2.35-1.31-.14-2,2.5-2,4.84,0,1.47.15,1.32-.14,1.76-.73,1.18-.95,1.76-1.38,2.57-.66,1.32.43,2.71.87,2.05,1-1.76,1.67-2.78,2-3.59C145.32,39.74,146.05,40.18,147,40.18Z" transform="translate(-4.51 -4.97)"/><path class="cls-2" d="M184.71,43.85c1.53-2.86.51-4.55-.14-3.38-3.86,7.11-6.69,9.39-8.87,9.39-4.87,0-2.25-7.85-2.18-7.85.14-1.17-2.55-1.76-2.69-1-.29,1.83-2.55,9.16-5.23,9.16-1.75,0-2.26-3.44-1.46-6.82s2.84-6.52,4.94-6.45c2.48.07,2,3.15,2,3.15.51.22,1.23.74,1.82-1.17.07-.37.43-4-3.78-4.18-2.33-.07-6.91,3-7.78,9.9s2.62,8.14,4,8.14c2.54.07,5.16-4.77,5.16-4.77s.65,4.47,5,4.4S183.48,46.19,184.71,43.85Z" transform="translate(-4.51 -4.97)"/><path class="cls-2" d="M198.66,43.77c1.45-2.93.44-4.62-.22-3.37-1.67,3.08-5.3,9.68-9.16,9.82-5.67.3-2.9-10-2.9-10.41,0-1.32-2.26-1.46-2.77-.14,0,0-.58,3.3-.72,4.91-.15,1.32.43,8.14,6.1,8.06C194.15,52.64,198.15,44.8,198.66,43.77ZM185.29,31.45c-1.53-.21-2.26,1.62-2.26,2.28a1.86,1.86,0,0,0,1.6,2.12,1.9,1.9,0,0,0,2.18-1.61C187,33.21,186.89,31.68,185.29,31.45Z" transform="translate(-4.51 -4.97)"/><path class="cls-2" d="M200.76,43.55c-.22,2.94-1,7.63,1.82,7.85,3.63.22,5.38-8.95,6-8.8,1.09.29-1.89,9.31,5.6,9.53,5.45.22,9.08-7.11,9.59-8.14,1.45-2.93.51-4.62-.14-3.44-1.68,3.08-5,9.67-9.45,9.31-5.75-.44-1.31-11-2.33-12.1-1.16-1.39-2.76-1.54-3.42.07s-4,10.78-5.08,10.56c-1.46-.37.65-5.57-.51-8.72-1-2.5-2.76-1.76-3.49-.44s-1.16,1.9-1.6,2.71c-.65,1.32.51,2.49,1,1.91.94-1.76,1.45-2.94,1.67-2.94C200.91,40.91,200.91,42,200.76,43.55Z" transform="translate(-4.51 -4.97)"/></svg>